<svg width="319" height="190" viewBox="0 0 319 190" fill="none" xmlns="http://www.w3.org/2000/svg">
<g filter="url(#filter0_d_13_214)">
<path fill-rule="evenodd" clip-rule="evenodd" d="M238.195 1.70605C234.173 3.90418 227.841 13.4059 227.841 17.2392C227.841 20.1606 227.738 20.1337 224.013 16.2273C215.98 7.80542 207.702 5.87404 197.842 10.1241C190.671 13.2161 188.266 15.6669 188.206 19.9439C188.156 23.4591 189.13 23.5207 193.284 20.2645C197.303 17.1148 205.669 16.9327 211.799 19.8605C216.667 22.1869 217.694 24.1042 214.082 24.1247C210.297 24.1452 198.404 30.2959 198.404 32.2324C198.404 33.2366 197.588 34.7358 196.591 35.5642C195.295 36.6428 194.843 39.6899 194.999 46.301C195.185 54.1163 195.814 56.5017 199.105 61.8559C203.682 69.3044 206.732 71.1832 205.179 65.5969C204.62 63.5885 204.217 58.4818 204.282 54.2497C204.434 44.3683 208.129 36.7992 214.211 33.9073C221.891 30.2561 225.309 31.6284 220.161 36.2952C218.754 37.5713 217.602 39.2026 217.602 39.9195C217.602 40.6364 216.857 42.1343 215.947 43.2474C211.707 48.435 210.24 65.2673 213.089 76.0515C214.109 79.9104 217.223 84.3874 218.888 84.3874C219.377 84.3874 219.5 80.0617 219.162 74.7754C218.45 63.6809 220.476 51.4898 224.329 43.6694C227.132 37.9817 229.039 36.63 228.853 40.4632C228.793 41.6982 229.178 49.3443 229.708 57.4558C230.996 77.1633 231.509 98.8766 230.718 100.236C230.367 100.84 229.83 107.477 229.525 114.984C229.22 122.491 228.428 129.181 227.765 129.851C227.103 130.521 226.52 133.695 226.471 136.904C226.383 142.608 224.289 150.402 224.091 145.762C223.995 143.505 220.641 141.565 219.641 143.187C219.31 143.724 219.565 146.44 220.21 149.222C220.854 152.005 221.308 157.167 221.219 160.694C221.128 164.345 220.86 165.449 220.599 163.259C219.166 151.214 218.615 148.51 217.602 148.51C216.985 148.51 216.55 149.808 216.635 151.396C216.721 152.984 216.685 155.94 216.556 157.965C216.347 161.241 216.086 161.454 214.196 159.888C212.286 158.308 212.138 158.489 212.738 161.656C213.212 164.149 212.88 165.182 211.607 165.182C210.254 165.182 210.008 166.262 210.62 169.53C211.42 173.803 211.329 173.909 205.239 175.854C201.831 176.942 196.019 178.215 192.324 178.681C177.145 180.599 187.678 181.534 222.72 181.378C243.133 181.287 259.835 180.78 259.836 180.251C259.836 179.723 258.542 179.223 256.958 179.142C250.35 178.803 265.201 176.857 275.836 176.667C283.866 176.524 286.158 176.176 283.404 175.515C281.23 174.994 278.828 174.183 278.064 173.709C276.472 172.723 274.509 158.04 274.953 150.434C276.344 126.587 285.207 87.6423 288.176 92.3323C289.771 94.8536 289.45 104.632 287.497 112.946C284.832 124.295 288.471 123.971 292.51 112.5C294.838 105.888 295.1 98.3534 293.218 92.1668C291.634 86.9652 292.018 86.2739 295.461 88.1207C299.608 90.3444 301.299 97.4493 299.485 105.026C298.638 108.563 298.268 111.782 298.664 112.177C299.059 112.573 301.14 110.121 303.288 106.728C307.39 100.246 308.753 90.819 305.593 90.7805C304.372 90.7651 304.391 90.5073 305.67 89.6955C306.946 88.8837 306.641 88.1681 304.39 86.6933C302.763 85.6289 300.079 84.3284 298.424 83.8039C293.931 82.3791 296.992 80.2207 303.382 80.3092C306.344 80.3503 309.724 81.2775 310.945 82.3855C313.74 84.9197 314.872 84.9209 314.872 82.3919C314.872 79.4987 307.543 73.2365 303.123 72.3503C300.338 71.7924 298.111 72.4259 294.704 74.7459L290.07 77.8995L288.473 73.2454C286.049 66.1778 282.744 63.6026 275.166 62.8729C270.344 62.4087 268.217 62.7203 267.4 64.013C265.237 67.4346 266.091 68.9633 269.756 68.2323C273.59 67.4667 281.567 71.9194 282.617 75.4102C283.084 76.9633 282.867 77.0248 281.499 75.7308C280.542 74.8254 276.553 74.1278 272.335 74.1278C264.058 74.1278 258.558 76.7465 258.558 80.6875C258.558 82.0174 257.982 83.105 257.278 83.105C256.566 83.105 255.998 86.5253 255.998 90.7997C255.998 99.1101 257.37 100.616 259.732 94.8997C261.957 89.5211 266.843 84.8094 271.949 83.1204C278.8 80.8555 280.392 82.3317 274.413 85.4031C268.354 88.5157 264.586 95.0613 265.199 101.408C265.74 107.004 270.076 108.108 270.076 102.65C270.076 98.3739 276.734 90.1675 281.238 88.8914L284.079 88.086L281.102 94.8933C273.623 111.995 269.554 127.297 267.527 145.945C266.155 158.573 265.048 162.573 263.129 161.834C262.118 161.445 261.147 163.388 260.381 167.332C259.293 172.937 258.838 173.504 254.752 174.333C252.308 174.829 250.103 175.85 249.853 176.601C249.305 178.248 241.919 174.749 241.919 172.844C241.919 172.156 243.051 170.461 244.433 169.076C245.814 167.692 246.441 166.245 245.824 165.863C245.207 165.481 243.584 166.707 242.217 168.587L239.733 172.005L239.897 163.784C239.988 159.262 240.569 154.753 241.188 153.762C241.96 152.528 241.85 152.249 240.838 152.877C238.484 154.334 239.121 151.724 242.022 148.029C243.486 146.165 244.464 143.974 244.194 143.163C243.924 142.351 242.142 144.231 240.236 147.342L236.772 152.999L237.746 137.609C239.848 104.381 238.031 63.0986 233.468 40.4632C232.425 35.2949 235.06 35.9964 241.336 42.5601C247.707 49.2224 250.735 58.7549 248.512 65.1467C247.273 68.7081 247.396 68.9979 250.149 68.9979C254.857 68.9979 256.46 65.7456 256.86 55.3744C257.145 48.0503 256.805 45.6521 255.415 45.1173C254.417 44.7325 253.89 43.6604 254.244 42.7345C254.6 41.8085 253.571 40.1247 251.96 38.9935C250.347 37.8624 249.589 36.9134 250.273 36.8852C250.958 36.857 249.934 35.9733 247.999 34.9204C246.063 33.8675 244.479 32.4299 244.479 31.7246C244.479 31.0192 243.184 29.8727 241.599 29.1776C239.342 28.1862 239.825 28.0798 243.839 28.6851C256.203 30.5498 267.517 44.117 267.517 57.0775C267.517 63.8117 270.422 61.6546 272.33 53.5033C273.225 49.6815 273.661 44.2465 273.299 41.4251C272.938 38.6037 272.605 35.2859 272.559 34.0509C272.515 32.8159 271.991 31.8066 271.396 31.8066C270.802 31.8066 270.618 30.6524 270.985 29.2417C271.556 27.0538 271.021 26.6742 267.346 26.6576C264.188 26.6422 263.54 26.319 264.92 25.4444C265.955 24.7877 266.349 23.7964 265.795 23.2411C264.139 21.5829 254.576 19.1167 252.659 19.8541C251.679 20.2312 250.878 19.9003 250.878 19.1193C250.878 17.2982 243.82 17.2764 240.446 19.0859C237.221 20.8147 236.205 19.9272 237.861 16.8262C240.197 12.4531 249.191 8.72238 257.399 8.72238C261.556 8.72238 264.957 8.253 264.957 7.67974C264.957 7.10648 263.372 5.14047 261.437 3.30912C258.386 0.424872 256.809 -0.0150085 249.598 0.000381051C245.023 0.0106407 239.891 0.777548 238.195 1.70605ZM28.8209 43.863C14.0474 47.5078 5.27517 54.7742 4.20903 64.2503C3.68429 68.9146 4.06826 70.4856 6.27347 72.6953C10.2155 76.6452 12.2261 76.0515 13.9028 70.4407C14.7948 67.459 17.6054 63.4244 20.9293 60.3542C30.1994 51.7912 48.4401 46.7845 52.5011 51.6873C56.1334 56.0733 50.2613 67.8283 41.6311 73.4506C35.594 77.3839 34.9285 76.3554 37.6508 67.2923C39.3863 61.5148 39.3466 60.9492 37.0441 58.6421C35.6887 57.284 33.8227 56.1733 32.896 56.1733C31.1298 56.1733 25.6213 68.0874 25.6213 71.9078C25.6213 74.9755 22.1375 74.7062 21.1417 71.5629C19.9169 67.695 17.942 68.4862 17.942 72.8453C17.942 75.0281 19.0901 77.843 20.5952 79.3512C22.867 81.6276 23.05 82.574 21.8751 85.9546C19.4894 92.8093 20.1012 98.0879 23.3815 98.969C29.768 100.684 30.3811 100.15 32.0206 91.4409C33.4169 84.0271 33.9186 83.105 36.5616 83.105C41.0155 83.105 46.0608 85.3583 46.9797 87.7577C47.539 89.2197 46.2515 91.2601 42.8573 94.2854C36.12 100.292 32.3073 102.073 25.5854 102.347C15.079 102.774 14.0692 102.493 11.8025 98.5022C9.14294 93.8186 6.74319 93.5647 5.66937 97.8532C3.56399 106.257 10.0248 111.885 21.7817 111.887C29.9664 111.888 38.1678 108.903 45.106 103.397C53.9537 96.3758 56.5557 86.6061 50.7477 82.2162L47.7157 79.9245L53.3599 74.946C64.1082 65.4673 66.8126 55.3244 60.3262 48.8249C53.8654 42.3497 42.321 40.5325 28.8209 43.863ZM170.247 49.3968C167.582 50.3907 164.689 53.5764 161.092 59.4808C157.143 65.9572 155.223 71.768 154.133 80.5401C153.269 87.4897 149.764 96.2707 147.227 97.8417C145.48 98.9241 145.581 98.1354 147.95 92.2027C150.713 85.2826 149.994 81.2826 145.901 80.8042C142.992 80.4631 142.718 79.9488 143.131 75.6026C143.755 69.0621 140.909 66.5138 136.336 69.5173C134.573 70.6754 133.13 72.7953 133.13 74.2304C133.13 76.6696 132.946 76.7081 130.285 74.8421C124.311 70.6485 114.805 73.8418 110.352 81.5378C108.104 85.4262 107.587 85.793 107.562 83.5166C107.546 81.9803 106.556 79.7449 105.364 78.5497C103.323 76.5054 103.01 76.5888 100.129 79.945C97.5755 82.9203 97.1967 84.3951 97.8533 88.7888C98.3985 92.4246 98.0683 94.8497 96.7935 96.5964C93.6361 100.923 92.9296 97.6083 94.6907 86.7356C96.2342 77.2121 96.1933 76.1476 94.2197 74.7023C90.8434 72.2284 87.0563 73.8661 87.0473 77.8046C87.0268 88.004 79.4718 98.5368 71.8949 98.9318C65.8962 99.2434 66.5387 97.2133 73.2439 94.6625C80.4726 91.9129 83.0132 89.566 84.5413 84.2271C87.9087 72.4618 73.3642 69.0095 63.4197 79.214C59.1219 83.6244 58.5549 84.9953 57.9597 92.413C57.3505 100.024 57.5386 100.858 60.3019 102.798C61.9542 103.958 65.5058 104.907 68.1923 104.907C73.0455 104.907 82.2478 101.1 83.9104 98.406C84.4325 97.5583 85.7508 98.6035 87.2278 101.035C90.6924 106.746 95.314 105.997 100.45 98.8933C105.088 92.4772 106.253 92.1207 106.253 97.121C106.253 103.122 109.425 105.28 117.28 104.627C125.923 103.909 132.197 99.7474 137.159 91.4409C140.642 85.6122 140.861 85.9379 138.693 93.7135C138.344 94.9639 138.43 97.6788 138.883 99.7474C140.337 106.382 147.978 106.415 151.875 99.8039L154.036 96.1412L156.062 100.203C158.412 104.913 163.595 106.208 168.145 103.22C170.527 101.657 171.379 101.628 173.311 103.042C175.719 104.807 175.12 107.472 172.314 107.472C169.329 107.472 165.127 113.289 165.127 117.421C165.127 122.802 169.022 125.599 174.374 124.06C180.255 122.371 183.006 119.284 187.631 109.185C189.946 104.131 192.693 99.514 193.737 98.9254C196.782 97.2043 204.777 86.5125 204.79 84.1425C204.816 79.668 202.147 80.5952 198.743 86.2419C196.806 89.4544 194.839 92.0822 194.37 92.0822C193.9 92.0822 194.317 89.0517 195.296 85.3493C197.373 77.4942 196.818 74.6818 192.989 73.6789C189.317 72.7158 186.885 74.919 186.885 79.2101C186.885 82.7459 179.433 99.1498 178.329 98.043C177.999 97.7122 178.934 93.1338 180.409 87.8693C183.474 76.9222 182.961 73.8059 178.188 74.3791C175.404 74.7126 174.502 76.0591 171.913 83.7462C168.018 95.3127 166.369 98.4945 164.271 98.4945C163.033 98.4945 162.567 96.2886 162.567 90.4317C162.567 82.6753 162.78 82.1444 168.142 76.4554C175.467 68.685 179.285 54.2009 175.11 50.0175C173.451 48.3555 173.145 48.3157 170.247 49.3968ZM169.664 67.132C168.558 69.7854 167.348 71.6513 166.975 71.2769C166.603 70.9037 167.289 68.5144 168.501 65.9662C171.364 59.9502 172.278 60.8659 169.664 67.132ZM78.1855 84.8607C76.6497 87.7372 71.9346 90.7997 69.0434 90.7997C67.13 90.7997 71.31 83.5218 74.5174 81.2711C78.3135 78.6061 80.424 80.6709 78.1855 84.8607ZM128.011 82.4253C128.011 84.5708 120.797 90.7997 118.313 90.7997C115.308 90.7997 116.232 88.2386 120.94 83.5218C125.223 79.2294 128.011 78.7972 128.011 82.4253ZM132.52 89.4749C128.532 95.2409 121.501 100.192 118.211 99.5525C114.216 98.7766 115.061 96.2438 119.6 95.3909C124.746 94.4227 133.13 87.1537 133.13 83.659C133.13 81.8738 133.487 81.6673 134.618 82.7997C135.748 83.9322 135.243 85.5365 132.52 89.4749ZM103.053 111.259C75.3084 122.632 70.8301 126.039 69.5643 136.744C68.5814 145.059 69.7512 145.204 78.5324 137.849C97.4373 122.013 119.882 113.562 132.205 117.636C137.78 119.481 138.814 121.784 135.809 125.665C134.545 127.297 133.17 130.075 132.753 131.838C128.629 149.277 127.45 153.648 125.745 157.816C124.663 160.464 123.056 163.23 122.176 163.963C120.479 165.373 120.809 163.164 124.047 151.401C125.118 147.514 125.159 145.23 124.19 143.415C123.106 141.388 123.371 140.335 125.497 138.205C129.096 134.598 128.564 127.52 124.651 126.961C123.155 126.747 120.995 127.51 119.852 128.655C117.517 130.995 117.049 137.652 119.129 138.939C120.023 139.493 119.861 140.282 118.647 141.259C115.93 143.447 112.652 154.501 112.652 161.472C112.652 171.779 119.739 175.215 125.341 167.623L128.272 163.651L130.612 167.506C132.869 171.227 133.262 171.356 141.905 171.223L150.859 171.084L151.646 166.53C152.692 160.476 154.877 154.791 157.217 152.037C160.646 148.003 161.138 149.666 158.63 156.814C154.824 167.665 155.77 172.877 161.543 172.877C163.138 172.877 163.847 171.905 163.847 169.72C163.847 165.317 168.634 152.946 171.141 150.871C173.001 149.332 173.128 149.556 172.347 152.999C169.219 166.808 170.271 171.595 176.435 171.595C178.381 171.595 180.628 170.939 181.427 170.138C182.512 169.051 183.379 169.181 184.847 170.652C188.417 174.229 194.796 171.461 204.061 162.313C210.213 156.238 212.482 153.086 212.482 150.614C212.482 144.499 207.694 146.987 203.572 155.243C202.603 157.182 201.382 158.77 200.857 158.77C200.331 158.77 198.498 156.254 196.783 153.179C193.928 148.059 193.819 147.291 195.501 144.074C199.739 135.97 193.125 130.953 186.925 137.567C184.343 140.321 184.059 141.585 184.737 147.323C185.344 152.448 184.961 155.007 183.02 158.82C179.812 165.121 177.516 166.682 178.691 161.763C179.169 159.764 180.055 157.157 180.662 155.969C182.271 152.819 182.011 145.422 180.23 143.637C178.147 141.55 173.277 141.694 171.256 143.902C169.842 145.448 169.276 145.411 167.303 143.645C165.435 141.975 164.293 141.851 161.272 142.993C158.307 144.115 157.233 144.024 156.009 142.547C155.163 141.527 153.31 140.864 151.889 141.075C149.881 141.372 148.534 143.845 145.825 152.203C142.498 162.478 140.411 165.653 137.61 164.71C136.873 164.462 136.514 160.804 136.766 156.074C137.162 148.614 137.582 147.554 141.383 144.399C146.853 139.86 151.307 129.481 150.798 122.461C150.42 117.256 150.27 117.09 145.929 117.076C142.754 117.067 140.441 116.04 137.987 113.549C134.609 110.12 134.182 110.039 120.069 110.124C112.119 110.171 104.461 110.683 103.053 111.259ZM176.445 113.172C174.812 116.764 171.526 118.546 171.526 115.84C171.526 114.408 176.058 110.037 177.543 110.037C177.724 110.037 177.23 111.447 176.445 113.172ZM96.91 128.217C95.8938 129.856 94.3234 132.955 93.4211 135.104C92.506 137.285 89.1809 140.685 85.898 142.798C77.8182 148.001 76.7495 155.229 84.6885 150.971C86.1105 150.208 87.5017 149.813 87.7807 150.093C88.0597 150.371 87.1459 153.729 85.7508 157.553C84.357 161.376 83.2154 166.661 83.2154 169.295C83.2154 173.613 83.6262 174.198 87.375 175.218C89.6621 175.84 91.8993 176.151 92.3447 175.911C92.7901 175.672 93.5657 172.438 94.0661 168.726C94.5666 165.013 96.2189 158.237 97.7355 153.667C100.335 145.834 100.773 145.293 105.357 144.226C110.745 142.974 115.27 137.795 112.98 135.501C112.056 134.575 110.845 134.596 109.034 135.566C104.831 137.821 103.663 137.223 104.008 132.998C104.244 130.12 103.567 128.505 101.546 127.132C98.9821 125.388 98.6084 125.476 96.91 128.217ZM143.518 133.962C142.091 136.673 140.898 138.402 140.866 137.803C140.778 136.092 144.919 127.835 145.549 128.466C145.86 128.777 144.946 131.25 143.518 133.962ZM189.434 162.651C186.329 164.618 185.418 164.082 186.958 161.198C188.046 159.162 188.765 158.859 189.872 159.968C190.98 161.078 190.872 161.74 189.434 162.651Z" fill="white" fill-opacity="0.9" shape-rendering="crispEdges"/>
</g>
<defs>
<filter id="filter0_d_13_214" x="0" y="0" width="318.872" height="189.395" filterUnits="userSpaceOnUse" color-interpolation-filters="sRGB">
<feFlood flood-opacity="0" result="BackgroundImageFix"/>
<feColorMatrix in="SourceAlpha" type="matrix" values="0 0 0 0 0 0 0 0 0 0 0 0 0 0 0 0 0 0 127 0" result="hardAlpha"/>
<feOffset dy="4"/>
<feGaussianBlur stdDeviation="2"/>
<feComposite in2="hardAlpha" operator="out"/>
<feColorMatrix type="matrix" values="0 0 0 0 0 0 0 0 0 0 0 0 0 0 0 0 0 0 1 0"/>
<feBlend mode="normal" in2="BackgroundImageFix" result="effect1_dropShadow_13_214"/>
<feBlend mode="normal" in="SourceGraphic" in2="effect1_dropShadow_13_214" result="shape"/>
</filter>
</defs>
</svg>
