<svg aria-hidden="true" style="position: absolute; width: 0; height: 0; overflow: hidden;" version="1.1" xmlns="http://www.w3.org/2000/svg" xmlns:xlink="http://www.w3.org/1999/xlink">
    <defs>
        <symbol id="icon-youtube" viewBox="0 0 37 32">
            <path d="M35.625 7.755c-0.407-1.478-1.606-2.642-3.13-3.037-2.76-0.718-13.83-0.718-13.83-0.718s-11.069 0-13.83 0.718c-1.523 0.395-2.722 1.559-3.13 3.037-0.74 2.679-0.74 8.269-0.74 8.269s0 5.59 0.74 8.269c0.407 1.478 1.607 2.594 3.13 2.989 2.761 0.718 13.83 0.718 13.83 0.718s11.069 0 13.83-0.718c1.523-0.395 2.722-1.511 3.13-2.989 0.74-2.679 0.74-8.269 0.74-8.269s0-5.59-0.74-8.269zM15.046 21.099v-10.15l9.252 5.075-9.252 5.075z"></path>
        </symbol>
        <symbol id="icon-facebook" viewBox="0 0 32 32">
            <path d="M31.5 16c0-8.563-6.938-15.5-15.5-15.5s-15.5 6.938-15.5 15.5c0 7.736 5.668 14.149 13.078 15.313v-10.832h-3.938v-4.481h3.938v-3.415c0-3.884 2.313-6.030 5.854-6.030 1.696 0 3.47 0.303 3.47 0.303v3.812h-1.955c-1.925 0-2.526 1.195-2.526 2.421v2.909h4.299l-0.687 4.481h-3.611v10.832c7.41-1.164 13.078-7.576 13.078-15.313z"></path>
        </symbol>
        <symbol id="icon-tiktok" viewBox="0 0 29 32">
            <path d="M7.647 24.882c0.634 0.334 1.339 0.509 2.056 0.509 2.386 0 4.334-1.898 4.422-4.264l0.009-21.127h5.271c0 0.449 0.042 0.896 0.125 1.338l1.412 0.001c-0.001 1.768 0.64 3.476 1.804 4.808l0.002 0.002c1.187 0.775 2.574 1.188 3.992 1.186v1.174c0.496 0.106 1.009 0.163 1.537 0.163v5.272c-2.632 0.003-5.197-0.822-7.334-2.358v10.713c0 5.349-4.353 9.702-9.703 9.702-1.332 0-2.65-0.275-3.872-0.807s-2.318-1.311-3.223-2.287l-0.002-0.001c-2.502-1.757-4.142-4.662-4.142-7.944 0-5.35 4.353-9.704 9.703-9.704 0.438 0.002 0.874 0.034 1.308 0.095v1.248c0.030-0.001 0.061-0.002 0.091-0.003 0.046-0.002 0.091-0.003 0.138-0.003 0.437 0.002 0.874 0.034 1.307 0.095v5.382c-0.413-0.13-0.851-0.205-1.307-0.205-1.175 0.001-2.301 0.469-3.132 1.3s-1.298 1.957-1.299 3.132c0 0.928 0.293 1.832 0.838 2.584l0.001 0.001zM2.176 25.76c0.45 1.173 1.122 2.238 1.964 3.142-0.859-0.919-1.522-1.988-1.964-3.142z"></path>
        </symbol>
        <symbol id="icon-instagram" viewBox="0 0 32 32">
            <path d="M16.001 0c-4.345 0-4.891 0.019-6.597 0.097-1.703 0.078-2.866 0.348-3.883 0.743-1.052 0.409-1.945 0.955-2.834 1.845s-1.437 1.782-1.847 2.834c-0.397 1.018-0.667 2.181-0.743 3.883-0.076 1.707-0.096 2.252-0.096 6.598s0.019 4.889 0.097 6.596c0.078 1.703 0.348 2.866 0.743 3.883 0.409 1.052 0.956 1.945 1.845 2.834s1.782 1.438 2.833 1.847c1.018 0.396 2.181 0.665 3.884 0.743 1.707 0.078 2.252 0.097 6.597 0.097s4.889-0.019 6.596-0.097c1.703-0.078 2.867-0.348 3.885-0.743 1.052-0.409 1.943-0.957 2.832-1.847s1.437-1.782 1.847-2.834c0.393-1.018 0.663-2.181 0.743-3.883 0.077-1.707 0.097-2.251 0.097-6.596s-0.020-4.891-0.097-6.597c-0.080-1.703-0.35-2.866-0.743-3.883-0.41-1.052-0.957-1.945-1.847-2.834s-1.78-1.437-2.833-1.845c-1.020-0.396-2.183-0.665-3.887-0.743-1.707-0.078-2.25-0.097-6.597-0.097h0.005zM14.566 2.883c0.426-0.001 0.901 0 1.435 0 4.272 0 4.778 0.015 6.465 0.092 1.56 0.071 2.407 0.332 2.971 0.551 0.747 0.29 1.279 0.637 1.839 1.197s0.907 1.093 1.197 1.84c0.219 0.563 0.48 1.41 0.551 2.97 0.077 1.687 0.093 2.193 0.093 6.463s-0.017 4.777-0.093 6.463c-0.071 1.56-0.332 2.407-0.551 2.97-0.29 0.747-0.637 1.278-1.197 1.838s-1.092 0.907-1.839 1.197c-0.563 0.22-1.411 0.48-2.971 0.551-1.687 0.077-2.193 0.093-6.465 0.093s-4.779-0.017-6.465-0.093c-1.56-0.072-2.407-0.333-2.971-0.552-0.747-0.29-1.28-0.637-1.84-1.197s-0.907-1.092-1.197-1.839c-0.219-0.563-0.48-1.41-0.551-2.97-0.077-1.687-0.092-2.193-0.092-6.466s0.015-4.777 0.092-6.463c0.071-1.56 0.332-2.407 0.551-2.971 0.29-0.747 0.637-1.28 1.197-1.84s1.093-0.907 1.84-1.197c0.564-0.22 1.411-0.48 2.971-0.552 1.476-0.067 2.048-0.087 5.030-0.090v0.004z"></path>
            <path d="M24.507 5.501c-0.38 0-0.751 0.113-1.067 0.324s-0.562 0.511-0.707 0.862-0.183 0.737-0.109 1.109c0.074 0.372 0.257 0.715 0.526 0.983s0.611 0.451 0.983 0.525 0.759 0.036 1.109-0.11c0.351-0.145 0.651-0.392 0.861-0.707s0.323-0.687 0.323-1.067c0-1.060-0.86-1.919-1.92-1.919z"></path>
            <path d="M15.967 7.744c4.538 0 8.216 3.679 8.216 8.217s-3.678 8.215-8.216 8.215-8.217-3.677-8.217-8.215c0-4.538 3.679-8.217 8.217-8.217zM16 21.25c2.899 0 5.25-2.351 5.25-5.25s-2.351-5.25-5.25-5.25c-2.899 0-5.25 2.351-5.25 5.25s2.351 5.25 5.25 5.25z"></path>
        </symbol>
        <symbol id="icon-logo" viewBox="0 0 54 32">
            <path d="M40.117 0.287c-0.677 0.37-1.744 1.971-1.744 2.616 0 0.492-0.017 0.487-0.645-0.17-1.353-1.418-2.747-1.744-4.408-1.028-1.208 0.521-1.613 0.934-1.623 1.654-0.008 0.592 0.156 0.602 0.855 0.054 0.677-0.53 2.086-0.561 3.118-0.068 0.82 0.392 0.993 0.715 0.385 0.718-0.637 0.003-2.641 1.039-2.641 1.365 0 0.169-0.137 0.422-0.305 0.561-0.218 0.182-0.294 0.695-0.268 1.808 0.031 1.316 0.137 1.718 0.692 2.62 0.771 1.254 1.285 1.571 1.023 0.63-0.094-0.338-0.162-1.198-0.151-1.911 0.026-1.664 0.648-2.939 1.672-3.426 1.293-0.615 1.869-0.384 1.002 0.402-0.237 0.215-0.431 0.49-0.431 0.61s-0.125 0.373-0.279 0.561c-0.714 0.874-0.961 3.709-0.481 5.525 0.172 0.65 0.696 1.404 0.977 1.404 0.082 0 0.103-0.729 0.046-1.619-0.12-1.869 0.221-3.922 0.87-5.239 0.472-0.958 0.793-1.186 0.762-0.54-0.010 0.208 0.055 1.496 0.144 2.862 0.217 3.319 0.303 6.976 0.17 7.205-0.059 0.102-0.15 1.22-0.201 2.484s-0.185 2.391-0.296 2.504c-0.111 0.113-0.21 0.647-0.218 1.188-0.015 0.961-0.367 2.273-0.401 1.492-0.016-0.38-0.581-0.707-0.749-0.434-0.056 0.090-0.013 0.548 0.096 1.016s0.185 1.338 0.17 1.932c-0.015 0.615-0.060 0.801-0.104 0.432-0.241-2.029-0.334-2.484-0.505-2.484-0.104 0-0.177 0.219-0.163 0.486s0.008 0.765-0.013 1.106c-0.035 0.552-0.079 0.588-0.397 0.324-0.322-0.266-0.347-0.236-0.246 0.298 0.080 0.42 0.024 0.594-0.19 0.594-0.228 0-0.269 0.182-0.166 0.732 0.135 0.72 0.119 0.738-0.906 1.065-0.574 0.183-1.553 0.398-2.175 0.476-2.556 0.323-0.782 0.48 5.119 0.454 3.438-0.015 6.251-0.101 6.251-0.19s-0.218-0.173-0.485-0.187c-1.113-0.057 1.388-0.385 3.179-0.417 1.352-0.024 1.738-0.083 1.275-0.194-0.366-0.088-0.771-0.224-0.899-0.304-0.268-0.166-0.599-2.639-0.524-3.92 0.234-4.016 1.727-10.575 2.227-9.786 0.269 0.425 0.215 2.072-0.114 3.472-0.449 1.911 0.164 1.857 0.844-0.075 0.392-1.114 0.436-2.383 0.119-3.425-0.267-0.876-0.202-0.992 0.378-0.681 0.698 0.375 0.983 1.571 0.678 2.847-0.143 0.596-0.205 1.138-0.138 1.204s0.417-0.346 0.779-0.918c0.691-1.092 0.92-2.679 0.388-2.686-0.206-0.003-0.202-0.046 0.013-0.183s0.164-0.257-0.216-0.506c-0.274-0.179-0.726-0.398-1.005-0.487-0.757-0.24-0.241-0.604 0.835-0.589 0.499 0.007 1.068 0.163 1.274 0.35 0.471 0.427 0.661 0.427 0.661 0.001 0-0.487-1.234-1.542-1.979-1.691-0.469-0.094-0.844 0.013-1.418 0.403l-0.78 0.531-0.269-0.784c-0.408-1.19-0.965-1.624-2.241-1.747-0.812-0.078-1.17-0.026-1.308 0.192-0.364 0.576-0.22 0.834 0.397 0.711 0.646-0.129 1.989 0.621 2.166 1.209 0.079 0.262 0.042 0.272-0.188 0.054-0.161-0.152-0.833-0.27-1.543-0.27-1.394 0-2.32 0.441-2.32 1.105 0 0.224-0.097 0.407-0.216 0.407-0.12 0-0.216 0.576-0.216 1.296 0 1.4 0.231 1.653 0.629 0.691 0.375-0.906 1.198-1.699 2.058-1.984 1.154-0.381 1.422-0.133 0.415 0.384-1.020 0.524-1.655 1.627-1.552 2.696 0.091 0.942 0.821 1.128 0.821 0.209 0-0.72 1.121-2.102 1.88-2.317l0.478-0.136-0.501 1.146c-1.26 2.88-1.945 5.457-2.286 8.598-0.231 2.127-0.418 2.8-0.741 2.676-0.17-0.066-0.334 0.262-0.463 0.926-0.183 0.944-0.26 1.040-0.948 1.179-0.412 0.084-0.783 0.256-0.825 0.382-0.092 0.277-1.336-0.312-1.336-0.633 0-0.116 0.191-0.401 0.423-0.635s0.338-0.477 0.234-0.541-0.377 0.142-0.608 0.459l-0.418 0.576 0.028-1.385c0.015-0.762 0.113-1.521 0.217-1.688 0.13-0.208 0.111-0.255-0.059-0.149-0.396 0.245-0.289-0.194 0.199-0.817 0.247-0.314 0.411-0.683 0.366-0.82s-0.346 0.18-0.667 0.704l-0.583 0.953 0.164-2.592c0.354-5.596 0.048-12.549-0.721-16.361-0.176-0.87 0.268-0.752 1.325 0.353 1.073 1.122 1.583 2.728 1.209 3.804-0.209 0.6-0.188 0.649 0.276 0.649 0.793 0 1.063-0.548 1.13-2.294 0.048-1.234-0.009-1.637-0.243-1.728-0.168-0.065-0.257-0.245-0.197-0.401s-0.113-0.44-0.385-0.63c-0.272-0.191-0.399-0.35-0.284-0.355s-0.057-0.154-0.383-0.331c-0.326-0.177-0.593-0.419-0.593-0.538s-0.218-0.312-0.485-0.429c-0.38-0.167-0.299-0.185 0.377-0.083 2.082 0.314 3.988 2.599 3.988 4.782 0 1.134 0.489 0.771 0.811-0.602 0.151-0.644 0.224-1.559 0.163-2.034s-0.117-1.034-0.125-1.242c-0.007-0.208-0.096-0.378-0.196-0.378s-0.131-0.194-0.069-0.432c0.096-0.369 0.006-0.432-0.613-0.435-0.532-0.003-0.641-0.057-0.409-0.204 0.174-0.111 0.241-0.278 0.147-0.371-0.279-0.279-1.89-0.695-2.212-0.57-0.165 0.063-0.3 0.008-0.3-0.124 0-0.307-1.189-0.31-1.757-0.006-0.543 0.291-0.714 0.142-0.435-0.381 0.393-0.737 1.908-1.365 3.291-1.365 0.7 0 1.273-0.079 1.273-0.176s-0.267-0.428-0.593-0.736c-0.514-0.486-0.779-0.56-1.994-0.557-0.771 0.002-1.635 0.131-1.92 0.287zM4.854 7.387c-2.488 0.614-3.966 1.838-4.145 3.434-0.088 0.786-0.024 1.050 0.348 1.422 0.664 0.665 1.003 0.565 1.285-0.38 0.15-0.502 0.624-1.182 1.183-1.699 1.561-1.442 4.633-2.285 5.317-1.46 0.612 0.739-0.377 2.718-1.831 3.665-1.017 0.662-1.129 0.489-0.67-1.037 0.292-0.973 0.286-1.068-0.102-1.457-0.228-0.229-0.543-0.416-0.699-0.416-0.297 0-1.225 2.007-1.225 2.65 0 0.517-0.587 0.471-0.754-0.058-0.206-0.651-0.539-0.518-0.539 0.216 0 0.368 0.193 0.842 0.447 1.096 0.383 0.383 0.413 0.543 0.216 1.112-0.402 1.154-0.299 2.044 0.254 2.192 1.076 0.289 1.179 0.199 1.455-1.268 0.235-1.249 0.32-1.404 0.765-1.404 0.75 0 1.6 0.38 1.755 0.784 0.094 0.246-0.123 0.59-0.694 1.099-1.135 1.012-1.777 1.312-2.909 1.358-1.769 0.072-1.94 0.025-2.321-0.648-0.448-0.789-0.852-0.832-1.033-0.109-0.355 1.415 0.734 2.363 2.714 2.364 1.378 0 2.76-0.503 3.928-1.43 1.49-1.183 1.928-2.828 0.95-3.567l-0.511-0.386 0.951-0.838c1.81-1.596 2.266-3.305 1.173-4.399-1.088-1.091-3.032-1.397-5.306-0.836zM28.673 8.319c-0.449 0.167-0.936 0.704-1.542 1.698-0.665 1.091-0.988 2.069-1.172 3.547-0.146 1.17-0.736 2.649-1.163 2.914-0.294 0.182-0.277 0.049 0.122-0.95 0.465-1.165 0.344-1.839-0.345-1.92-0.49-0.057-0.536-0.144-0.467-0.876 0.105-1.102-0.374-1.531-1.144-1.025-0.297 0.195-0.54 0.552-0.54 0.794 0 0.411-0.031 0.417-0.479 0.103-1.006-0.706-2.607-0.168-3.357 1.128-0.379 0.655-0.466 0.717-0.47 0.333-0.003-0.259-0.169-0.635-0.37-0.837-0.344-0.344-0.396-0.33-0.882 0.235-0.43 0.501-0.494 0.749-0.383 1.489 0.092 0.612 0.036 1.021-0.178 1.315-0.532 0.729-0.651 0.17-0.354-1.661 0.26-1.604 0.253-1.783-0.079-2.027-0.569-0.417-1.206-0.141-1.208 0.522-0.003 1.718-1.276 3.492-2.552 3.558-1.010 0.052-0.902-0.289 0.227-0.719 1.217-0.463 1.645-0.858 1.903-1.758 0.567-1.982-1.882-2.563-3.557-0.844-0.724 0.743-0.819 0.974-0.92 2.223-0.103 1.282-0.071 1.422 0.394 1.749 0.278 0.195 0.876 0.355 1.329 0.355 0.817 0 2.367-0.641 2.647-1.095 0.088-0.143 0.31 0.033 0.559 0.443 0.584 0.962 1.362 0.836 2.227-0.361 0.781-1.081 0.977-1.141 0.977-0.299 0 1.011 0.534 1.374 1.857 1.264 1.456-0.121 2.512-0.822 3.348-2.221 0.587-0.982 0.623-0.927 0.258 0.383-0.059 0.211-0.044 0.668 0.032 1.016 0.245 1.117 1.532 1.123 2.188 0.010l0.364-0.617 0.341 0.684c0.396 0.793 1.269 1.011 2.035 0.508 0.401-0.263 0.545-0.268 0.87-0.030 0.406 0.297 0.305 0.746-0.168 0.746-0.503 0-1.21 0.98-1.21 1.676 0 0.906 0.656 1.377 1.557 1.118 0.99-0.284 1.454-0.804 2.233-2.505 0.39-0.851 0.853-1.629 1.028-1.728 0.513-0.29 1.859-2.091 1.862-2.49 0.004-0.754-0.445-0.597-1.018 0.354-0.326 0.541-0.658 0.984-0.736 0.984s-0.009-0.51 0.156-1.134c0.35-1.323 0.256-1.797-0.389-1.966-0.618-0.162-1.028 0.209-1.028 0.932 0 0.595-1.255 3.358-1.441 3.172-0.056-0.056 0.102-0.827 0.35-1.713 0.516-1.844 0.43-2.369-0.374-2.272-0.469 0.056-0.621 0.283-1.057 1.578-0.656 1.948-0.934 2.484-1.287 2.484-0.209 0-0.287-0.372-0.287-1.358 0-1.306 0.036-1.396 0.939-2.354 1.234-1.309 1.877-3.748 1.174-4.453-0.279-0.28-0.331-0.287-0.819-0.105zM28.575 11.306c-0.186 0.447-0.39 0.761-0.453 0.698s0.053-0.465 0.257-0.894c0.482-1.013 0.636-0.859 0.196 0.196zM13.168 14.292c-0.259 0.484-1.053 1-1.54 1-0.322 0 0.382-1.226 0.922-1.605 0.639-0.449 0.995-0.101 0.618 0.605zM21.56 13.882c0 0.361-1.215 1.41-1.633 1.41-0.506 0-0.35-0.431 0.442-1.226 0.721-0.723 1.191-0.796 1.191-0.185zM22.319 15.069c-0.672 0.971-1.856 1.805-2.41 1.697-0.673-0.131-0.531-0.557 0.234-0.701 0.867-0.163 2.279-1.387 2.279-1.976 0-0.301 0.060-0.335 0.251-0.145s0.105 0.461-0.353 1.124zM17.356 18.738c-4.673 1.915-5.427 2.489-5.64 4.292-0.166 1.4 0.031 1.425 1.51 0.186 3.184-2.667 6.964-4.090 9.040-3.404 0.939 0.311 1.113 0.699 0.607 1.352-0.213 0.275-0.444 0.743-0.515 1.040-0.695 2.937-0.893 3.673-1.18 4.375-0.182 0.446-0.453 0.912-0.601 1.035-0.286 0.237-0.23-0.135 0.315-2.116 0.18-0.655 0.187-1.039 0.024-1.345-0.183-0.341-0.138-0.519 0.22-0.877 0.606-0.608 0.517-1.8-0.142-1.894-0.252-0.036-0.616 0.092-0.808 0.285-0.393 0.394-0.472 1.515-0.122 1.732 0.151 0.093 0.123 0.226-0.081 0.391-0.458 0.369-1.010 2.23-1.010 3.404 0 1.736 1.194 2.315 2.137 1.036l0.494-0.669 0.394 0.649c0.38 0.627 0.446 0.648 1.902 0.626l1.508-0.023 0.133-0.767c0.176-1.020 0.544-1.977 0.938-2.441 0.578-0.679 0.66-0.399 0.238 0.805-0.641 1.828-0.482 2.705 0.491 2.705 0.269 0 0.388-0.164 0.388-0.532 0-0.742 0.806-2.825 1.228-3.175 0.313-0.259 0.335-0.221 0.203 0.358-0.527 2.326-0.35 3.132 0.689 3.132 0.328 0 0.706-0.11 0.841-0.245 0.183-0.183 0.329-0.161 0.576 0.087 0.601 0.602 1.676 0.136 3.236-1.404 1.036-1.023 1.418-1.554 1.418-1.97 0-1.030-0.806-0.611-1.501 0.78-0.163 0.327-0.369 0.594-0.457 0.594s-0.397-0.424-0.686-0.942c-0.481-0.862-0.499-0.992-0.216-1.533 0.714-1.365-0.4-2.21-1.444-1.096-0.435 0.464-0.483 0.677-0.369 1.643 0.102 0.863 0.038 1.294-0.289 1.936-0.54 1.061-0.927 1.324-0.729 0.496 0.081-0.337 0.23-0.776 0.332-0.976 0.271-0.531 0.227-1.776-0.073-2.077-0.351-0.352-1.171-0.327-1.511 0.045-0.238 0.26-0.333 0.254-0.666-0.043-0.315-0.281-0.507-0.302-1.016-0.11-0.499 0.189-0.68 0.174-0.886-0.075-0.142-0.172-0.455-0.283-0.694-0.248-0.338 0.050-0.565 0.467-1.021 1.874-0.56 1.731-0.912 2.265-1.384 2.106-0.124-0.042-0.185-0.658-0.142-1.454 0.067-1.256 0.137-1.435 0.778-1.966 0.921-0.764 1.671-2.512 1.586-3.695-0.064-0.877-0.089-0.905-0.82-0.907-0.535-0.002-0.924-0.174-1.338-0.594-0.569-0.578-0.641-0.591-3.018-0.577-1.339 0.008-2.629 0.094-2.866 0.191zM29.717 19.061c-0.275 0.605-0.828 0.905-0.828 0.449 0-0.241 0.763-0.977 1.013-0.977 0.030 0-0.053 0.237-0.185 0.528zM16.322 21.594c-0.171 0.276-0.436 0.798-0.588 1.16-0.154 0.367-0.714 0.94-1.267 1.296-1.361 0.876-1.541 2.094-0.204 1.377 0.239-0.128 0.474-0.195 0.521-0.148s-0.107 0.612-0.342 1.256c-0.235 0.644-0.427 1.534-0.427 1.978 0 0.727 0.069 0.826 0.701 0.998 0.385 0.105 0.762 0.157 0.837 0.117s0.206-0.585 0.29-1.21c0.084-0.625 0.363-1.767 0.618-2.536 0.438-1.319 0.512-1.41 1.284-1.59 0.907-0.211 1.67-1.083 1.284-1.469-0.156-0.156-0.36-0.152-0.665 0.011-0.708 0.38-0.905 0.279-0.846-0.433 0.040-0.485-0.074-0.757-0.415-0.988-0.432-0.294-0.495-0.279-0.781 0.183zM24.171 22.562c-0.24 0.457-0.441 0.748-0.447 0.647-0.015-0.288 0.683-1.679 0.789-1.573 0.052 0.052-0.102 0.469-0.342 0.926zM31.905 27.394c-0.523 0.331-0.676 0.241-0.417-0.245 0.183-0.343 0.304-0.394 0.491-0.207s0.168 0.298-0.074 0.452z"></path>
        </symbol>
    </defs>
</svg>