<svg aria-hidden="true" style="position: absolute; width: 0; height: 0; overflow: hidden;" version="1.1" xmlns="http://www.w3.org/2000/svg" xmlns:xlink="http://www.w3.org/1999/xlink">
    <defs>
        <symbol id="icon-youtube" viewBox="0 0 37 32">
            <path d="M35.625 7.755c-0.407-1.478-1.606-2.642-3.13-3.037-2.76-0.718-13.83-0.718-13.83-0.718s-11.069 0-13.83 0.718c-1.523 0.395-2.722 1.559-3.13 3.037-0.74 2.679-0.74 8.269-0.74 8.269s0 5.59 0.74 8.269c0.407 1.478 1.607 2.594 3.13 2.989 2.761 0.718 13.83 0.718 13.83 0.718s11.069 0 13.83-0.718c1.523-0.395 2.722-1.511 3.13-2.989 0.74-2.679 0.74-8.269 0.74-8.269s0-5.59-0.74-8.269zM15.046 21.099v-10.15l9.252 5.075-9.252 5.075z"></path>
        </symbol>
        <symbol id="icon-facebook" viewBox="0 0 32 32">
            <path d="M31.5 16c0-8.563-6.938-15.5-15.5-15.5s-15.5 6.938-15.5 15.5c0 7.736 5.668 14.149 13.078 15.313v-10.832h-3.938v-4.481h3.938v-3.415c0-3.884 2.313-6.030 5.854-6.030 1.696 0 3.47 0.303 3.47 0.303v3.812h-1.955c-1.925 0-2.526 1.195-2.526 2.421v2.909h4.299l-0.687 4.481h-3.611v10.832c7.41-1.164 13.078-7.576 13.078-15.313z"></path>
        </symbol>
        <symbol id="icon-tiktok" viewBox="0 0 29 32">
            <path d="M7.647 24.882c0.634 0.334 1.339 0.509 2.056 0.509 2.386 0 4.334-1.898 4.422-4.264l0.009-21.127h5.271c0 0.449 0.042 0.896 0.125 1.338l1.412 0.001c-0.001 1.768 0.64 3.476 1.804 4.808l0.002 0.002c1.187 0.775 2.574 1.188 3.992 1.186v1.174c0.496 0.106 1.009 0.163 1.537 0.163v5.272c-2.632 0.003-5.197-0.822-7.334-2.358v10.713c0 5.349-4.353 9.702-9.703 9.702-1.332 0-2.65-0.275-3.872-0.807s-2.318-1.311-3.223-2.287l-0.002-0.001c-2.502-1.757-4.142-4.662-4.142-7.944 0-5.35 4.353-9.704 9.703-9.704 0.438 0.002 0.874 0.034 1.308 0.095v1.248c0.030-0.001 0.061-0.002 0.091-0.003 0.046-0.002 0.091-0.003 0.138-0.003 0.437 0.002 0.874 0.034 1.307 0.095v5.382c-0.413-0.13-0.851-0.205-1.307-0.205-1.175 0.001-2.301 0.469-3.132 1.3s-1.298 1.957-1.299 3.132c0 0.928 0.293 1.832 0.838 2.584l0.001 0.001zM2.176 25.76c0.45 1.173 1.122 2.238 1.964 3.142-0.859-0.919-1.522-1.988-1.964-3.142z"></path>
        </symbol>
        <symbol id="icon-instagram" viewBox="0 0 32 32">
            <path d="M16.001 0c-4.345 0-4.891 0.019-6.597 0.097-1.703 0.078-2.866 0.348-3.883 0.743-1.052 0.409-1.945 0.955-2.834 1.845s-1.437 1.782-1.847 2.834c-0.397 1.018-0.667 2.181-0.743 3.883-0.076 1.707-0.096 2.252-0.096 6.598s0.019 4.889 0.097 6.596c0.078 1.703 0.348 2.866 0.743 3.883 0.409 1.052 0.956 1.945 1.845 2.834s1.782 1.438 2.833 1.847c1.018 0.396 2.181 0.665 3.884 0.743 1.707 0.078 2.252 0.097 6.597 0.097s4.889-0.019 6.596-0.097c1.703-0.078 2.867-0.348 3.885-0.743 1.052-0.409 1.943-0.957 2.832-1.847s1.437-1.782 1.847-2.834c0.393-1.018 0.663-2.181 0.743-3.883 0.077-1.707 0.097-2.251 0.097-6.596s-0.020-4.891-0.097-6.597c-0.080-1.703-0.35-2.866-0.743-3.883-0.41-1.052-0.957-1.945-1.847-2.834s-1.78-1.437-2.833-1.845c-1.020-0.396-2.183-0.665-3.887-0.743-1.707-0.078-2.25-0.097-6.597-0.097h0.005zM14.566 2.883c0.426-0.001 0.901 0 1.435 0 4.272 0 4.778 0.015 6.465 0.092 1.56 0.071 2.407 0.332 2.971 0.551 0.747 0.29 1.279 0.637 1.839 1.197s0.907 1.093 1.197 1.84c0.219 0.563 0.48 1.41 0.551 2.97 0.077 1.687 0.093 2.193 0.093 6.463s-0.017 4.777-0.093 6.463c-0.071 1.56-0.332 2.407-0.551 2.97-0.29 0.747-0.637 1.278-1.197 1.838s-1.092 0.907-1.839 1.197c-0.563 0.22-1.411 0.48-2.971 0.551-1.687 0.077-2.193 0.093-6.465 0.093s-4.779-0.017-6.465-0.093c-1.56-0.072-2.407-0.333-2.971-0.552-0.747-0.29-1.28-0.637-1.84-1.197s-0.907-1.092-1.197-1.839c-0.219-0.563-0.48-1.41-0.551-2.97-0.077-1.687-0.092-2.193-0.092-6.466s0.015-4.777 0.092-6.463c0.071-1.56 0.332-2.407 0.551-2.971 0.29-0.747 0.637-1.28 1.197-1.84s1.093-0.907 1.84-1.197c0.564-0.22 1.411-0.48 2.971-0.552 1.476-0.067 2.048-0.087 5.030-0.090v0.004z"></path>
            <path d="M24.507 5.501c-0.38 0-0.751 0.113-1.067 0.324s-0.562 0.511-0.707 0.862-0.183 0.737-0.109 1.109c0.074 0.372 0.257 0.715 0.526 0.983s0.611 0.451 0.983 0.525 0.759 0.036 1.109-0.11c0.351-0.145 0.651-0.392 0.861-0.707s0.323-0.687 0.323-1.067c0-1.060-0.86-1.919-1.92-1.919z"></path>
            <path d="M15.967 7.744c4.538 0 8.216 3.679 8.216 8.217s-3.678 8.215-8.216 8.215-8.217-3.677-8.217-8.215c0-4.538 3.679-8.217 8.217-8.217zM16 21.25c2.899 0 5.25-2.351 5.25-5.25s-2.351-5.25-5.25-5.25c-2.899 0-5.25 2.351-5.25 5.25s2.351 5.25 5.25 5.25z"></path>
        </symbol>
    </defs>
</svg>